<svg xmlns="http://www.w3.org/2000/svg" width="92" height="32" viewBox="0 0 92 32" fill="none">
    <g clip-path="url(#clip0_1544_10393)">
        <path d="M0 0.194672H3.08848V14.5628H0V0.194672Z" fill="#282087"/>
        <path d="M4.65918 14.5627V11.1129H16.1571C17.5562 11.1129 18.3799 10.5 18.3799 9.52246V8.717C18.3799 7.45235 17.326 6.83939 15.927 6.83939C12.574 6.83939 11.5007 10.2118 8.01328 10.2118C5.88618 10.2118 4.66025 8.73635 4.66025 6.60926V4.0219C4.65918 1.85824 6.78628 0.191406 9.35428 0.191406H18.9348V3.64122H7.72508C6.32601 3.64122 5.50227 4.25526 5.50227 5.2317V6.03608C5.50227 7.22437 6.59486 7.81906 8.01221 7.81906C11.519 7.81906 12.7449 4.54238 15.8689 4.54238C17.9767 4.54238 19.223 5.94145 19.223 7.76206V10.7323C19.223 12.8594 17.5175 14.5649 14.9108 14.5649H4.65918V14.5627Z" fill="#282087"/>
        <path d="M30.4586 14.5626H33.8266L28.3669 0.194519H25.2387L19.7983 14.5626H23.0471L24.1278 11.5537H29.38L30.4607 14.5626H30.4586ZM25.0709 8.92336L26.7528 4.24009L28.4347 8.92336H25.072H25.0709Z" fill="#282087"/>
        <path d="M34.8032 0.194519H39.6456C41.0006 0.194519 42.2427 0.460137 43.3718 0.991373C44.501 1.52261 45.4043 2.32699 46.0818 3.40237C46.7593 4.47882 47.098 5.80046 47.098 7.36836C47.098 8.93626 46.7593 10.2783 46.0818 11.3548C45.4043 12.4302 44.501 13.2345 43.3718 13.7658C42.2427 14.297 41.0006 14.5626 39.6456 14.5626H34.8032V0.194519ZM41.6286 11.415C42.3126 11.1225 42.8675 10.6407 43.2923 9.97077C43.717 9.30081 43.9299 8.43298 43.9299 7.36944C43.9299 6.30589 43.717 5.45957 43.2923 4.78853C42.8675 4.11749 42.3126 3.63573 41.6286 3.3443C40.9447 3.0518 40.1833 2.90554 39.3467 2.90554H37.8917V11.8538H39.3467C40.1833 11.8538 40.9447 11.7075 41.6286 11.415Z" fill="#282087"/>
        <path d="M48.0513 7.37709C48.0513 2.95083 51.2129 0 55.908 0C60.6031 0 63.7647 2.95083 63.7647 7.37709C63.7647 11.8033 60.6031 14.7553 55.908 14.7553C51.2129 14.7553 48.0513 11.7851 48.0513 7.37709ZM62.9603 7.37709C62.9603 5.03922 60.3353 3.64015 55.908 3.64015C51.4807 3.64015 48.8567 5.03922 48.8567 7.37709C48.8567 9.71496 51.4624 11.114 55.908 11.114C60.3536 11.114 62.9603 9.71496 62.9603 7.37709Z" fill="#282087"/>
        <path d="M65.5338 0.194519H71.9108C72.8539 0.194519 73.6808 0.374107 74.3917 0.732208C75.1025 1.09138 75.6499 1.60219 76.0359 2.26677C76.4209 2.93135 76.6134 3.70885 76.6134 4.59819C76.6134 5.08964 76.5306 5.56818 76.3639 6.03274C76.1972 6.49838 75.9585 6.91993 75.6466 7.29846C75.3348 7.67699 74.9659 7.99316 74.5401 8.24479C74.9917 8.48353 75.3477 8.79324 75.6058 9.17177C75.8649 9.5503 76.0542 10.0256 76.1736 10.5966L76.6521 12.7883C76.665 12.842 76.679 12.8883 76.6919 12.9281C76.7586 13.2335 76.8446 13.5356 76.9511 13.8346C77.0575 14.1336 77.164 14.3766 77.2705 14.5616H73.883C73.8034 14.4153 73.7239 14.226 73.6432 13.9938C73.5636 13.7615 73.5034 13.526 73.4636 13.2862L73.1249 11.1935C73.0313 10.6751 72.8722 10.2536 72.6463 9.92776C72.4205 9.60192 72.0979 9.36319 71.6796 9.21048C71.2612 9.05778 70.7332 8.98143 70.0955 8.98143H68.6212V14.5616H65.5327V0.194519H65.5338ZM72.5184 6.08328C72.8302 5.95747 73.0668 5.7639 73.226 5.50581C73.3851 5.24664 73.4647 4.94446 73.4647 4.59926C73.4647 4.06803 73.2851 3.65293 72.927 3.35398C72.5678 3.05502 72.0635 2.90555 71.4118 2.90555H68.6223V6.27363H71.4118C71.8366 6.27363 72.2054 6.21018 72.5184 6.08436V6.08328Z" fill="#282087"/>
        <path d="M87.9923 14.5626H91.3604L85.8997 0.194519H82.7714L77.3311 14.5626H80.5798L81.6605 11.5537H86.9127L87.9934 14.5626H87.9923ZM82.6036 8.92336L84.2855 4.24009L85.9674 8.92336H82.6047H82.6036Z" fill="#282087"/>
        <path d="M13.3424 31.84H16.7105L11.2498 17.4719H8.12149L2.68115 31.84H5.92987L7.01062 28.8311H12.2628L13.3435 31.84H13.3424ZM7.95373 26.2007L9.63562 21.5174L11.3175 26.2007H7.9548H7.95373Z" fill="#282087"/>
        <path d="M19.7903 31.1728C18.7203 30.6211 17.8739 29.7941 17.2492 28.6919C16.6244 27.5896 16.3125 26.2411 16.3125 24.6463C16.3125 23.2117 16.6244 21.9363 17.2492 20.8201C17.8739 19.7039 18.7299 18.8403 19.8204 18.2295C20.9097 17.6187 22.1249 17.3133 23.467 17.3133C24.6488 17.3133 25.7156 17.523 26.6652 17.9413C27.6147 18.3596 28.3954 18.9672 29.0063 19.7641C29.6171 20.5609 30.0031 21.5245 30.1623 22.6536H26.7544C26.5953 21.8697 26.2092 21.232 25.5984 20.7405C24.9876 20.2491 24.2628 20.0028 23.4261 20.0028C22.6691 20.0028 21.9916 20.1985 21.3937 20.591C20.7957 20.9836 20.3237 21.5309 19.9785 22.2353C19.6333 22.9397 19.4601 23.743 19.4601 24.6463C19.4601 25.5496 19.6365 26.397 19.9881 27.1078C20.3398 27.8187 20.8312 28.3628 21.4625 28.7424C22.0927 29.1209 22.8207 29.3102 23.6444 29.3102C24.2821 29.3102 24.8499 29.1941 25.3489 28.9618C25.8479 28.7295 26.2425 28.4133 26.535 28.0154C26.8275 27.6165 27.0061 27.1648 27.0727 26.6605H23.1465V24.1699H30.0418V31.8416H27.1717V30.2479C26.8533 30.7663 26.3479 31.1878 25.6575 31.5136C24.9661 31.8395 24.209 32.0019 23.3853 32.0019C22.0572 32.0019 20.857 31.7266 19.7881 31.1749L19.7903 31.1728Z" fill="#282087"/>
        <path d="M32.0558 17.4719H41.8406V20.1625H35.1442V22.9122H40.4652V25.6028H35.1442V29.1505H42.0589V31.8411H32.0547V17.4729L32.0558 17.4719Z" fill="#282087"/>
        <path d="M43.6436 31.8396V17.4672H46.6137C49.4689 17.4672 51.3658 19.5749 51.3658 22.7183V25.8229C51.3658 27.6435 52.2476 28.1995 54.164 28.1995H57.0256V17.4683H58.2074V31.8407H55.2566C52.4014 31.8407 50.5045 29.7329 50.5045 26.5907V23.4861C50.5045 21.6655 49.6237 21.1106 47.7063 21.1106H44.8265V31.8418H43.6446L43.6436 31.8396Z" fill="#282087"/>
        <path d="M62.9357 31.1623C61.8399 30.6042 60.9731 29.7707 60.3354 28.661C59.6977 27.5512 59.3794 26.2134 59.3794 24.6455C59.3794 23.0776 59.7052 21.7592 60.3558 20.6505C61.0064 19.5407 61.8807 18.7073 62.9765 18.1491C64.0723 17.591 65.2714 17.3125 66.5737 17.3125C67.7695 17.3125 68.8416 17.5222 69.7923 17.9405C70.7418 18.3588 71.5097 18.9664 72.0936 19.7633C72.6775 20.5601 73.0367 21.5172 73.17 22.6335H69.8815C69.7353 21.8635 69.3535 21.2322 68.7363 20.7397C68.1179 20.2483 67.391 20.002 66.5543 20.002C65.8102 20.002 65.1294 20.1848 64.5122 20.5505C63.8938 20.9161 63.4088 21.4473 63.0572 22.1452C62.7055 22.8432 62.5292 23.6766 62.5292 24.6466C62.5292 25.6166 62.7055 26.4704 63.0572 27.1673C63.4088 27.8652 63.8906 28.3964 64.5014 28.762C65.1122 29.1277 65.7972 29.3105 66.5543 29.3105C67.4178 29.3105 68.1491 29.0718 68.747 28.5932C69.3449 28.1147 69.717 27.4576 69.8633 26.6199H73.2109C73.0378 27.8028 72.6431 28.7954 72.0248 29.5998C71.4064 30.4041 70.63 31.0042 69.6933 31.4032C68.7567 31.8021 67.7168 32.0011 66.5747 32.0011C65.2467 32.0011 64.0336 31.7226 62.9378 31.1644L62.9357 31.1623Z" fill="#282087"/>
        <path d="M77.473 25.9017L72.5703 17.4719H75.918L79.0075 22.952L82.1562 17.4719H85.4845L80.5625 25.9017V31.84H77.473V25.9017Z" fill="#282087"/>
    </g>
    <defs>
        <clipPath id="clip0_1544_10393">
            <rect width="91.3608" height="32" fill="white"/>
        </clipPath>
    </defs>
</svg>