<svg width="233" height="121" viewBox="0 0 233 121" fill="none" xmlns="http://www.w3.org/2000/svg">
    <g style="mix-blend-mode:multiply" opacity="0.7" filter="url(#filter0_f_1055_265)">
        <path d="M13.5019 32.8123C11.6754 34.2866 9.35839 37.4961 8.42822 38.9166C8.42822 42.8325 9.69664 50.434 15.5313 58.6113C21.366 66.7887 35.0649 74.5053 40.1385 79.6881C45.2122 84.871 55.1058 88.3262 56.8816 90.169C58.6574 92.0118 70.5804 93.3939 74.893 94.2001C79.2057 95.0063 83.7719 95.3518 91.6361 99.1525C99.5003 102.953 112.945 108.482 115.99 110.44C119.034 112.398 126.137 112.167 128.166 112.743C130.196 113.319 143.387 112.398 147.7 112.167C152.013 111.937 157.594 110.324 163.428 109.058C169.263 107.791 173.068 103.875 175.605 101.802C178.142 99.7284 179.664 97.0794 183.469 95.3518C187.274 93.6242 190.826 89.8235 194.124 88.3262C197.422 86.8289 196.407 85.7924 198.183 84.2951C199.959 82.7978 200.212 81.9916 202.242 81.0702C204.271 80.1488 207.062 75.4267 208.076 74.5053L213.15 69.8984C214.672 68.5163 215.941 66.5583 217.463 65.6369C218.985 64.7155 223.044 62.1817 224.819 60.2237C226.595 58.2658 217.716 49.0519 215.941 47.2091C214.165 45.3663 199.959 35.5765 196.407 31.6606C192.855 27.7447 186.006 24.2895 183.469 21.6405C180.932 18.9915 169.77 18.7611 165.458 18.4156C161.145 18.0701 147.193 17.7245 141.104 17.6094C135.016 17.4942 129.688 16.2273 126.137 15.7666C122.585 15.3059 118.78 14.2693 114.468 14.2693C110.155 14.2693 106.603 13.0024 102.544 12.4265C98.4855 11.8507 93.1582 11.1596 88.5919 10.2382C84.0256 9.31684 77.4299 8.39545 74.893 8.39545C72.3562 8.39545 63.2236 10.8141 60.9405 11.1596C59.114 11.436 54.0911 13.3479 51.8079 14.2693C45.2122 15.3059 35.8259 20.4887 31.5133 21.6405C27.2007 22.7922 25.425 25.0957 19.3366 28.2054C13.2482 31.3151 15.785 30.9695 13.5019 32.8123Z" fill="#3c3c3c"/>
    </g>
    <defs>
        <filter id="filter0_f_1055_265" x="0.871548" y="0.838772" width="231.738" height="119.647" filterUnits="userSpaceOnUse" color-interpolation-filters="sRGB">
            <feFlood flood-opacity="0" result="BackgroundImageFix"/>
            <feBlend mode="normal" in="SourceGraphic" in2="BackgroundImageFix" result="shape"/>
            <feGaussianBlur stdDeviation="3.77834" result="effect1_foregroundBlur_1055_265"/>
        </filter>
    </defs>
</svg>
