<svg width="206" height="71" viewBox="0 0 206 71" fill="none" xmlns="http://www.w3.org/2000/svg">
    <g style="mix-blend-mode:multiply" opacity="0.7" filter="url(#filter0_f_1055_773)">
        <path d="M123.249 11.5824C119.245 10.0433 109.984 8.56574 102.226 8.56574C95.6011 8.25791 86.7083 8.56574 77.9485 8.87357C69.1888 9.18139 57.676 10.0433 48.4157 11.5824C39.1554 13.1216 35.1509 14.5376 30.1453 15.7689C25.1397 17.0002 20.885 18.9703 20.3844 19.586C19.8839 20.2016 8.62133 21.7408 11.1241 24.6343C13.1263 26.9492 11.9584 31.2629 11.1241 33.1304C5.11743 36.2087 8.8716 36.0855 8.62133 37.1321C8.37105 38.1787 14.1275 42.0574 13.1263 43.2271C12.1252 44.3969 8.62132 43.4734 17.1308 46.6748C25.6403 49.8762 25.6403 49.0758 30.1453 49.7531C34.6503 50.4303 38.9051 50.8612 41.4078 51.6616C43.9106 52.4619 50.4179 52.8929 57.676 57.0794C64.934 61.2658 71.4413 60.8964 83.4547 62.1277C95.3257 63.3445 108.174 61.856 112.582 61.3453L112.737 61.3274C116.992 60.8349 127.253 59.9729 133.26 59.9114C139.267 59.8498 151.781 57.8181 156.786 57.5719C161.792 57.3256 164.795 55.7865 168.8 54.9861C172.804 54.1858 178.31 53.016 185.318 51.2922C192.326 49.5684 189.823 48.1524 192.576 46.6748C195.329 45.1972 195.079 42.2421 197.081 39.841C199.083 37.44 196.831 34.3001 195.079 33.1304C193.327 31.9606 187.32 27.3432 180.062 25.1884C174.256 23.4646 157.954 21.3508 150.529 20.5094C148.027 18.2315 127.253 13.1216 123.249 11.5824Z" fill="#3c3c3c"/>
    </g>
    <defs>
        <filter id="filter0_f_1055_773" x="0.133755" y="0.881557" width="205.29" height="69.2695" filterUnits="userSpaceOnUse" color-interpolation-filters="sRGB">
            <feFlood flood-opacity="0" result="BackgroundImageFix"/>
            <feBlend mode="normal" in="SourceGraphic" in2="BackgroundImageFix" result="shape"/>
            <feGaussianBlur stdDeviation="3.77834" result="effect1_foregroundBlur_1055_773"/>
        </filter>
    </defs>
</svg>
