<svg width="246" height="113" viewBox="0 0 246 113" fill="none" xmlns="http://www.w3.org/2000/svg">
    <g style="mix-blend-mode:multiply" opacity="0.7" filter="url(#filter0_f_1055_183)">
        <path d="M9.29139 45.4291C9.29139 44.0493 7.18447 37.955 9.29139 35.8852C11.6993 33.7004 23.4378 27.1462 27.3507 26.4562C31.2635 25.7663 43.303 21.3968 49.6238 19.9019C55.9445 18.4071 74.9068 13.8076 78.8196 13.0027C82.7325 12.1978 94.772 9.20814 102.598 8.51821C110.423 7.82829 120.055 8.74819 123.968 10.013C127.881 11.2779 151.96 14.8425 161.29 16.6823C170.621 18.5221 178.146 19.902 184.165 21.3968C190.185 22.8916 207.944 25.6513 211.856 27.1462C215.769 28.641 225.702 33.3555 228.11 34.9653C230.518 36.5751 234.43 40.0247 234.43 42.4395C234.43 44.8542 237.44 47.8439 237.44 51.0635C237.44 54.2832 237.741 59.1126 237.44 61.0674C237.139 63.0222 236.838 68.1966 234.43 69.6914C232.023 71.1863 227.508 78.0855 221.789 79.9253C216.07 81.7651 213.963 87.5145 211.856 89.4693C209.749 91.424 201.623 93.8388 196.807 95.1036C191.991 96.3685 182.661 98.2083 178.146 98.7832C173.631 99.3582 163.096 102.693 157.077 103.728C151.057 104.763 145.639 104.533 136.91 104.533C128.182 104.533 121.56 105.452 114.938 105.223C108.316 104.993 99.5878 104.993 94.772 104.533C89.9562 104.073 78.5186 103.958 74.9068 103.728C71.2949 103.498 64.3722 100.393 62.2653 100.048C60.1584 99.7031 50.8277 98.8982 46.3129 98.7832C41.8714 98.6701 38.5951 96.999 37.6302 96.5069L37.5843 96.4835C36.6813 96.0235 30.0596 93.6088 27.3507 92.4589C25.1835 91.539 23.8391 88.7793 23.4378 87.5145L19.525 83.2599V78.0855V73.486C19.525 72.3362 16.5151 68.6566 17.1171 67.2767C17.719 65.8969 9.29139 54.8581 9.29139 54.1682V45.4291Z" fill="#3c3c3c"/>
    </g>
    <defs>
        <filter id="filter0_f_1055_183" x="0.798306" y="0.72543" width="244.333" height="112.091" filterUnits="userSpaceOnUse" color-interpolation-filters="sRGB">
            <feFlood flood-opacity="0" result="BackgroundImageFix"/>
            <feBlend mode="normal" in="SourceGraphic" in2="BackgroundImageFix" result="shape"/>
            <feGaussianBlur stdDeviation="3.77834" result="effect1_foregroundBlur_1055_183"/>
        </filter>
    </defs>
</svg>
